<?xml version="1.0" encoding="UTF-8"?>
<!DOCTYPE svg PUBLIC "-//W3C//DTD SVG 1.1//EN" "http://www.w3.org/Graphics/SVG/1.1/DTD/svg11.dtd">
<!-- Creator: CorelDRAW 2020 (64 Bit) -->
<svg xmlns="http://www.w3.org/2000/svg" xml:space="preserve" width="255.02mm" height="68.2482mm" version="1.1" style="shape-rendering:geometricPrecision; text-rendering:geometricPrecision; image-rendering:optimizeQuality; fill-rule:evenodd; clip-rule:evenodd"
viewBox="0 0 5256.87 1406.84"
 xmlns:xlink="http://www.w3.org/1999/xlink"
 xmlns:xodm="http://www.corel.com/coreldraw/odm/2003">
 <defs>
  <style type="text/css">
   <![CDATA[
    .fil0 {fill:#134F93}
    .fil1 {fill:#4070A5;fill-rule:nonzero}
   ]]>
  </style>
 </defs>
 <g id="Camada_x0020_1">
  <metadata id="CorelCorpID_0Corel-Layer"/>
  <rect class="fil0" x="-0" width="5256.87" height="1406.84"/>
  <path class="fil1" d="M5256.87 0l-47.56 0c16.53,4.42 32.51,9.5 47.56,16.48l0 -16.48zm0 154.49c-7.27,-11.93 -16.03,-23.4 -26.83,-34.2 -40.55,-40.55 -90.63,-52.47 -139.04,-64 -46.03,-10.97 -89.52,-21.32 -123.55,-55.36l-0.93 -0.93 -42.19 0c6.06,8.65 12.74,16.61 20.08,23.95 40.55,40.56 90.63,52.48 139.04,64.02 46.03,10.96 89.52,21.32 123.54,55.36 28.41,28.41 40.33,63.41 49.86,100.99l0 -89.83zm0 326.76c-0.99,-0.94 -1.98,-1.89 -2.96,-2.87 -34.03,-34.02 -44.39,-77.52 -55.35,-123.56 -11.54,-48.41 -23.46,-98.48 -64.01,-139.03 -40.55,-40.55 -90.61,-52.47 -139.04,-64.01 -46.04,-10.96 -89.53,-21.32 -123.55,-55.35 -27.26,-27.26 -39.33,-60.59 -48.69,-96.42l-33.61 0c10.52,42.12 24.18,84.36 59.27,119.46 40.54,40.54 90.61,52.47 139.02,64 46.05,10.96 89.53,21.32 123.56,55.36 34.03,34.02 44.39,77.51 55.35,123.55 11.54,48.42 23.46,98.49 64,139.04 8.3,8.29 16.99,15.39 25.99,21.53l0 -41.69zm0 141.83c-36.61,-9.43 -70.67,-21.44 -98.44,-49.22 -34.04,-34.02 -44.4,-77.51 -55.36,-123.55 -11.54,-48.42 -23.46,-98.49 -64.01,-139.04 -40.55,-40.54 -90.63,-52.47 -139.05,-64.01 -46.03,-10.96 -89.51,-21.32 -123.54,-55.35 -34.03,-34.01 -44.39,-77.51 -55.35,-123.55 -5.43,-22.79 -10.96,-45.97 -19.52,-68.36l-35.23 0c10.6,23.54 16.73,49.27 23.07,75.9 11.54,48.42 23.47,98.5 64.01,139.05 40.55,40.53 90.62,52.47 139.03,64 46.04,10.96 89.53,21.32 123.56,55.35 34.03,34.02 44.39,77.5 55.35,123.55 11.54,48.42 23.45,98.49 64.02,139.05 35.66,35.65 78.68,49.18 121.47,59.77l0 -33.59zm0 121.92c-23,-9.01 -46.88,-14.69 -70.38,-20.29 -46.04,-10.97 -89.52,-21.32 -123.55,-55.36 -34.04,-34.03 -44.39,-77.5 -55.36,-123.55 -11.53,-48.43 -23.46,-98.49 -64,-139.05 -40.55,-40.55 -90.62,-52.47 -139.04,-64 -46.03,-10.97 -89.52,-21.33 -123.55,-55.36 -34.03,-34.02 -44.39,-77.52 -55.34,-123.56 -11.54,-48.41 -23.46,-98.48 -64.01,-139.04 -9.81,-9.81 -20.18,-17.94 -30.95,-24.8l-85.28 0c34.61,9.25 66.75,21.4 93.19,47.83 34.03,34.03 44.39,77.51 55.35,123.56 11.53,48.42 23.46,98.49 64,139.04 40.55,40.54 90.62,52.47 139.04,64.01 46.04,10.96 89.53,21.31 123.56,55.35 34.03,34.03 44.39,77.51 55.35,123.55 11.54,48.42 23.46,98.49 64.01,139.04 40.55,40.55 90.62,52.47 139.04,64.01 27.36,6.52 53.82,12.82 77.93,24l0 -35.39z"/>
  <path class="fil1" d="M-0 0l47.56 0c-16.53,4.42 -32.51,9.5 -47.56,16.48l0 -16.48zm0 154.49c7.27,-11.93 16.04,-23.4 26.83,-34.2 40.55,-40.55 90.62,-52.47 139.04,-64 46.03,-10.97 89.52,-21.32 123.55,-55.36l0.93 -0.93 42.19 0c-6.06,8.65 -12.74,16.61 -20.08,23.95 -40.55,40.56 -90.63,52.48 -139.04,64.02 -46.03,10.96 -89.52,21.32 -123.55,55.36 -28.41,28.41 -40.33,63.41 -49.86,100.98l0 -89.82zm0 326.76c0.99,-0.94 1.98,-1.89 2.95,-2.87 34.03,-34.02 44.39,-77.52 55.35,-123.56 11.54,-48.41 23.46,-98.48 64.01,-139.03 40.55,-40.55 90.61,-52.47 139.04,-64.01 46.05,-10.96 89.53,-21.32 123.55,-55.35 27.26,-27.26 39.33,-60.59 48.69,-96.42l33.61 0c-10.52,42.12 -24.18,84.36 -59.27,119.46 -40.54,40.54 -90.61,52.47 -139.02,64 -46.05,10.96 -89.53,21.32 -123.56,55.36 -34.03,34.02 -44.39,77.51 -55.35,123.55 -11.54,48.42 -23.46,98.49 -64,139.04 -8.3,8.29 -16.99,15.39 -25.99,21.53l0 -41.69zm0 141.83c36.61,-9.43 70.67,-21.44 98.44,-49.22 34.04,-34.02 44.39,-77.51 55.35,-123.55 11.54,-48.42 23.46,-98.49 64.01,-139.04 40.55,-40.54 90.63,-52.47 139.05,-64.01 46.03,-10.96 89.51,-21.32 123.54,-55.35 34.03,-34.01 44.39,-77.51 55.35,-123.55 5.43,-22.79 10.96,-45.97 19.52,-68.36l35.23 0c-10.6,23.54 -16.73,49.27 -23.07,75.9 -11.54,48.42 -23.47,98.5 -64.01,139.05 -40.55,40.53 -90.62,52.47 -139.03,64 -46.04,10.96 -89.53,21.32 -123.56,55.35 -34.03,34.02 -44.39,77.5 -55.35,123.55 -11.54,48.42 -23.45,98.49 -64.02,139.05 -35.65,35.65 -78.68,49.18 -121.47,59.77l0 -33.59zm0 121.93c23,-9 46.88,-14.69 70.38,-20.29 46.04,-10.97 89.52,-21.32 123.55,-55.36 34.04,-34.03 44.39,-77.5 55.36,-123.55 11.53,-48.43 23.46,-98.49 64,-139.05 40.55,-40.55 90.62,-52.47 139.04,-64 46.03,-10.97 89.52,-21.33 123.55,-55.36 34.03,-34.02 44.39,-77.52 55.34,-123.56 11.54,-48.41 23.46,-98.48 64.01,-139.04 9.81,-9.81 20.18,-17.94 30.95,-24.8l85.28 0c-34.61,9.25 -66.75,21.4 -93.19,47.83 -34.03,34.03 -44.39,77.51 -55.35,123.56 -11.53,48.42 -23.46,98.49 -64,139.04 -40.55,40.54 -90.62,52.47 -139.04,64.01 -46.04,10.96 -89.53,21.31 -123.56,55.35 -34.03,34.03 -44.39,77.51 -55.35,123.55 -11.54,48.42 -23.46,98.49 -64.01,139.04 -40.54,40.55 -90.62,52.47 -139.04,64.01 -27.36,6.52 -53.82,12.82 -77.92,24l0 -35.39z"/>
 </g>
</svg>
